<?xml version="1.0" encoding="utf-8"?><!-- Uploaded to: SVG Repo, www.svgrepo.com, Generator: SVG Repo Mixer Tools -->
<svg version="1.1" id="Uploaded to svgrepo.com" xmlns="http://www.w3.org/2000/svg" xmlns:xlink="http://www.w3.org/1999/xlink" 
	 width="800px" height="800px" viewBox="0 0 32 32" xml:space="preserve">
<style type="text/css">
	.stone_een{fill:#0B1719;}
</style>
<path class="stone_een" d="M10.917,14.171l0.823,1.029l3.596-4.499L14.63,9.819C14.868,9.088,15,8.31,15,7.5
	C15,3.358,11.642,0,7.5,0S0,3.358,0,7.5S3.358,15,7.5,15C8.732,15,9.891,14.697,10.917,14.171z M3,7.5C3,5.019,5.019,3,7.5,3
	S12,5.019,12,7.5S9.981,12,7.5,12S3,9.981,3,7.5z M25.561,23.492c1.727,2.161,1.833,5.137,0.397,7.388
	c-0.18,0.265-0.498,0.456-0.843,0.456c-0.312,0-0.587-0.146-0.771-0.37l-7.727-9.664l3.596-4.499L25.561,23.492z M24.5,0
	C20.358,0,17,3.358,17,7.5c0,0.795,0.126,1.56,0.355,2.278L6.392,23.492c-1.729,2.162-1.833,5.142-0.394,7.393
	c0.18,0.267,0.491,0.451,0.837,0.451c0.301,0,0.568-0.136,0.751-0.347c0.002,0,13.462-16.835,13.462-16.835
	C22.083,14.692,23.255,15,24.5,15c4.142,0,7.5-3.358,7.5-7.5S28.642,0,24.5,0z M16,17c-0.552,0-1-0.448-1-1c0-0.552,0.448-1,1-1
	s1,0.448,1,1C17,16.552,16.552,17,16,17z M24.501,12c-2.481,0-4.5-2.019-4.5-4.5S22.02,3,24.501,3s4.5,2.019,4.5,4.5
	S26.983,12,24.501,12z"/>
</svg>