<?xml version="1.0" encoding="iso-8859-1"?>
<!-- Uploaded to: SVG Repo, www.svgrepo.com, Generator: SVG Repo Mixer Tools -->
<svg fill="#000000" height="800px" width="800px" version="1.1" id="Layer_1" xmlns="http://www.w3.org/2000/svg" xmlns:xlink="http://www.w3.org/1999/xlink" 
	 viewBox="0 0 508.342 508.342" xml:space="preserve">
<g>
	<g>
		<path d="M397.039,80.525l-68.403-36.821c-1.434-0.776-2.33-2.27-2.33-3.891V21.619c0-6.699-3.021-12.902-8.303-17.024
			c-5.282-4.13-12.066-5.572-18.534-3.934L195.055,26.756c-12.51,3.14-23.006,11.554-28.766,23.066l-0.845,1.698
			c-4.011,8.03-12.237,13.047-21.461,13.09c-16.964,0.094-32.768,7.731-43.358,20.975L89.993,98.88
			c-7.159,8.943-11.349,19.729-12.126,31.189l-6.647,99.772c-0.691,10.445,1.681,20.779,6.878,29.867l27.431,48.002
			c3.004,45.428,13.515,88.748,46.166,119.741c6.618,6.282,13.735,11.911,21.014,17.196v55.162c0,4.719,3.814,8.533,8.533,8.533
			s8.533-3.814,8.533-8.533v-43.365c0.957,0.641,1.917,1.285,2.871,1.923l8.192,5.513c3.234,2.185,6.391,4.523,9.549,6.844
			c13.653,10.112,27.776,20.557,47.659,20.557c19.874,0,33.997-10.445,47.659-20.557c3.149-2.321,6.306-4.659,9.54-6.844
			l8.201-5.513c0.951-0.636,1.909-1.279,2.864-1.919v43.361c0,4.719,3.814,8.533,8.533,8.533c4.719,0,8.533-3.814,8.533-8.533
			v-55.162c7.277-5.285,14.395-10.914,21.012-17.196c32.848-31.182,43.401-74.83,46.408-120.611l0.153,0.066l10.735-25.037
			c10.325-24.098,15.556-49.613,15.556-75.81v-58.223C437.24,119.676,421.837,93.896,397.039,80.525z M394.809,269.413
			c0,54.861-5.111,110.481-42.172,145.656c-6.614,6.282-13.963,11.976-21.53,17.375c-0.87,0.424-1.661,0.984-2.333,1.665
			c-4.911,3.446-9.894,6.778-14.818,10.067l-8.294,5.564c-3.43,2.33-6.767,4.804-10.103,7.27
			c-11.964,8.841-23.27,17.203-37.513,17.203c-14.251,0-25.557-8.363-37.521-17.203c-3.337-2.466-6.673-4.941-10.103-7.27
			l-8.294-5.564c-13.338-8.909-27.119-18.125-38.682-29.107c-38.699-36.727-41.933-93.943-41.933-144.666l0.23-77.79
			c0-5.769,1.126-11.366,3.345-16.623c5.803-13.747,19.772-21.948,35.021-21.948c4.915,0,9.967,0.853,14.916,2.645
			c13.013,4.702,38.025,10.325,83.251,10.325s70.229-5.623,83.251-10.325c20.343-7.364,42.249,1.118,49.929,19.302
			c2.227,5.257,3.354,10.854,3.354,16.623V269.413z M420.173,206.058c0,18.248-2.789,36.12-8.298,53.331v-66.776
			c0-8.064-1.587-15.889-4.702-23.262c-11.196-26.539-42.598-39.177-71.45-28.715c-11.733,4.25-34.697,9.31-77.449,9.31
			s-65.715-5.06-77.449-9.31c-28.834-10.47-60.245,2.176-71.467,28.715c-3.115,7.373-4.685,15.198-4.685,23.236l-0.23,77.79
			c0,0.348,0.003,0.697,0.003,1.045l-11.529-20.18c-3.533-6.178-5.146-13.175-4.668-20.267l6.647-99.763
			c0.538-7.962,3.447-15.454,8.422-21.675l10.633-13.295c7.356-9.199,18.33-14.507,30.114-14.566
			c15.693-0.077,29.73-8.713,36.634-22.511l0.845-1.69c3.541-7.074,9.975-12.245,17.655-14.165l104.397-26.095
			c1.86-0.461,3.243,0.316,3.9,0.828c0.648,0.503,1.741,1.647,1.741,3.576v18.193c0,7.902,4.326,15.155,11.298,18.91l68.412,36.83
			c19.26,10.385,31.223,30.413,31.223,52.284V206.058z"/>
	</g>
</g>
</svg>